<mxfile host="65bd71144e">
    <diagram id="p_MQu7kFzsrlKVh0PBC9" name="第 3 页">
        <mxGraphModel dx="944" dy="830" grid="1" gridSize="10" guides="1" tooltips="1" connect="1" arrows="1" fold="1" page="1" pageScale="1" pageWidth="827" pageHeight="1169" math="0" shadow="0">
            <root>
                <mxCell id="QZJh6ibgrhvezjYry0sa-0"/>
                <mxCell id="QZJh6ibgrhvezjYry0sa-1" parent="QZJh6ibgrhvezjYry0sa-0"/>
                <mxCell id="81oPqcwqzCa20pula7WT-10" value="分层架构" style="swimlane;startSize=60;horizontal=1;containerType=tree;newEdgeStyle={&quot;edgeStyle&quot;:&quot;elbowEdgeStyle&quot;,&quot;startArrow&quot;:&quot;none&quot;,&quot;endArrow&quot;:&quot;none&quot;};rounded=1;fontSize=19;fontColor=#ffffff;fillColor=#d80073;strokeColor=#A50040;" parent="QZJh6ibgrhvezjYry0sa-1" vertex="1">
                    <mxGeometry x="39" y="60" width="750" height="570" as="geometry"/>
                </mxCell>
                <mxCell id="81oPqcwqzCa20pula7WT-11" value="" style="edgeStyle=elbowEdgeStyle;elbow=vertical;startArrow=none;endArrow=classic;fontSize=19;fontColor=#FFFFFF;curved=1;strokeColor=#000000;endFill=1;" parent="81oPqcwqzCa20pula7WT-10" source="81oPqcwqzCa20pula7WT-13" target="81oPqcwqzCa20pula7WT-14" edge="1">
                    <mxGeometry relative="1" as="geometry"/>
                </mxCell>
                <mxCell id="81oPqcwqzCa20pula7WT-12" value="" style="edgeStyle=elbowEdgeStyle;elbow=vertical;startArrow=none;endArrow=classic;fontSize=19;fontColor=#FFFFFF;entryX=0.5;entryY=0;entryDx=0;entryDy=0;curved=1;strokeColor=#000000;endFill=1;" parent="81oPqcwqzCa20pula7WT-10" source="81oPqcwqzCa20pula7WT-13" target="81oPqcwqzCa20pula7WT-15" edge="1">
                    <mxGeometry relative="1" as="geometry">
                        <mxPoint x="665" y="200" as="targetPoint"/>
                    </mxGeometry>
                </mxCell>
                <UserObject label="&lt;span style=&quot;font-weight: 700&quot;&gt;common&lt;/span&gt;&lt;br style=&quot;padding: 0px ; margin: 0px ; font-weight: 700&quot;&gt;&lt;span style=&quot;font-weight: 700&quot;&gt;helpers&lt;/span&gt;&lt;br style=&quot;padding: 0px ; margin: 0px ; font-weight: 700&quot;&gt;&lt;span style=&quot;font-weight: 700&quot;&gt;constants&lt;/span&gt;" treeRoot="1" id="81oPqcwqzCa20pula7WT-13">
                    <mxCell style="whiteSpace=wrap;html=1;align=center;treeFolding=1;treeMoving=1;newEdgeStyle={&quot;edgeStyle&quot;:&quot;elbowEdgeStyle&quot;,&quot;startArrow&quot;:&quot;none&quot;,&quot;endArrow&quot;:&quot;none&quot;};rounded=1;fontSize=19;fillColor=#0050ef;strokeColor=#001DBC;fontColor=#ffffff;" parent="81oPqcwqzCa20pula7WT-10" vertex="1">
                        <mxGeometry x="30" y="90" width="690" height="75" as="geometry"/>
                    </mxCell>
                </UserObject>
                <mxCell id="81oPqcwqzCa20pula7WT-14" value="View层" style="whiteSpace=wrap;html=1;align=center;verticalAlign=middle;treeFolding=1;treeMoving=1;newEdgeStyle={&quot;edgeStyle&quot;:&quot;elbowEdgeStyle&quot;,&quot;startArrow&quot;:&quot;none&quot;,&quot;endArrow&quot;:&quot;none&quot;};rounded=1;fontSize=19;fillColor=#008a00;strokeColor=#005700;fontColor=#ffffff;" parent="81oPqcwqzCa20pula7WT-10" vertex="1">
                    <mxGeometry x="30" y="240" width="100" height="260" as="geometry"/>
                </mxCell>
                <mxCell id="81oPqcwqzCa20pula7WT-24" style="edgeStyle=none;html=1;exitX=0.5;exitY=1;exitDx=0;exitDy=0;entryX=0.5;entryY=0;entryDx=0;entryDy=0;fontSize=19;fontColor=#FFFFFF;fillColor=#bac8d3;strokeColor=#000000;" parent="81oPqcwqzCa20pula7WT-10" source="81oPqcwqzCa20pula7WT-15" target="81oPqcwqzCa20pula7WT-21" edge="1">
                    <mxGeometry relative="1" as="geometry"/>
                </mxCell>
                <mxCell id="81oPqcwqzCa20pula7WT-33" style="edgeStyle=none;html=1;exitX=0;exitY=0.5;exitDx=0;exitDy=0;entryX=1.017;entryY=0.529;entryDx=0;entryDy=0;fontSize=19;fontColor=#FFFFFF;entryPerimeter=0;fillColor=#bac8d3;strokeColor=#000000;" parent="81oPqcwqzCa20pula7WT-10" source="81oPqcwqzCa20pula7WT-15" target="81oPqcwqzCa20pula7WT-16" edge="1">
                    <mxGeometry relative="1" as="geometry">
                        <Array as="points">
                            <mxPoint x="561" y="380"/>
                        </Array>
                    </mxGeometry>
                </mxCell>
                <mxCell id="81oPqcwqzCa20pula7WT-15" value="Entities层" style="whiteSpace=wrap;html=1;align=center;verticalAlign=middle;treeFolding=1;treeMoving=1;newEdgeStyle={&quot;edgeStyle&quot;:&quot;elbowEdgeStyle&quot;,&quot;startArrow&quot;:&quot;none&quot;,&quot;endArrow&quot;:&quot;none&quot;};rounded=1;fontSize=19;fillColor=#e3c800;strokeColor=#B09500;fontColor=#000000;" parent="81oPqcwqzCa20pula7WT-10" vertex="1">
                    <mxGeometry x="610" y="240" width="110" height="120" as="geometry"/>
                </mxCell>
                <mxCell id="81oPqcwqzCa20pula7WT-35" style="edgeStyle=none;html=1;exitX=0;exitY=0.5;exitDx=0;exitDy=0;entryX=1;entryY=0.5;entryDx=0;entryDy=0;fontSize=19;fontColor=#FFFFFF;fillColor=#bac8d3;strokeColor=#000000;" parent="81oPqcwqzCa20pula7WT-10" source="81oPqcwqzCa20pula7WT-16" target="81oPqcwqzCa20pula7WT-14" edge="1">
                    <mxGeometry relative="1" as="geometry"/>
                </mxCell>
                <mxCell id="81oPqcwqzCa20pula7WT-16" value="Interactors层" style="whiteSpace=wrap;html=1;align=center;verticalAlign=middle;treeFolding=1;treeMoving=1;newEdgeStyle={&quot;edgeStyle&quot;:&quot;elbowEdgeStyle&quot;,&quot;startArrow&quot;:&quot;none&quot;,&quot;endArrow&quot;:&quot;none&quot;};rounded=1;fontSize=19;fillColor=#1ba1e2;strokeColor=#006EAF;fontColor=#ffffff;" parent="81oPqcwqzCa20pula7WT-10" vertex="1">
                    <mxGeometry x="317" y="240" width="115" height="260" as="geometry"/>
                </mxCell>
                <mxCell id="81oPqcwqzCa20pula7WT-34" style="edgeStyle=none;html=1;exitX=0;exitY=0.5;exitDx=0;exitDy=0;entryX=1;entryY=0.533;entryDx=0;entryDy=0;fontSize=19;fontColor=#FFFFFF;entryPerimeter=0;fillColor=#bac8d3;strokeColor=#000000;" parent="81oPqcwqzCa20pula7WT-10" source="81oPqcwqzCa20pula7WT-21" target="81oPqcwqzCa20pula7WT-16" edge="1">
                    <mxGeometry relative="1" as="geometry">
                        <Array as="points">
                            <mxPoint x="561" y="380"/>
                        </Array>
                    </mxGeometry>
                </mxCell>
                <mxCell id="81oPqcwqzCa20pula7WT-21" value="Services层" style="whiteSpace=wrap;html=1;align=center;verticalAlign=middle;treeFolding=1;treeMoving=1;newEdgeStyle={&quot;edgeStyle&quot;:&quot;elbowEdgeStyle&quot;,&quot;startArrow&quot;:&quot;none&quot;,&quot;endArrow&quot;:&quot;none&quot;};rounded=1;fontSize=19;fillColor=#6a00ff;strokeColor=#3700CC;fontColor=#ffffff;" parent="81oPqcwqzCa20pula7WT-10" vertex="1">
                    <mxGeometry x="610" y="380" width="110" height="120" as="geometry"/>
                </mxCell>
                <mxCell id="81oPqcwqzCa20pula7WT-22" style="edgeStyle=none;html=1;fontSize=19;fontColor=#FFFFFF;entryX=0.5;entryY=0;entryDx=0;entryDy=0;fillColor=#bac8d3;strokeColor=#000000;curved=1;" parent="QZJh6ibgrhvezjYry0sa-1" target="81oPqcwqzCa20pula7WT-16" edge="1">
                    <mxGeometry relative="1" as="geometry">
                        <mxPoint x="414" y="230" as="sourcePoint"/>
                    </mxGeometry>
                </mxCell>
            </root>
        </mxGraphModel>
    </diagram>
</mxfile>